<svg xmlns="http://www.w3.org/2000/svg" xmlns:xlink="http://www.w3.org/1999/xlink" version="1.1" width="256" height="256" viewBox="0 0 256 256" xml:space="preserve">
<g style="stroke: none; stroke-width: 0; stroke-dasharray: none; stroke-linecap: butt; stroke-linejoin: miter; stroke-miterlimit: 10; fill: none; fill-rule: nonzero; opacity: 1;" transform="translate(1.4065934065934016 1.4065934065934016) scale(2.81 2.81)">
	<path d="M 87.226 44.441 H 68.894 V 20.999 c 0 -1.104 -0.896 -2 -2 -2 H 39.2 V 2 c 0 -1.104 -0.896 -2 -2 -2 H 2.774 c -1.104 0 -2 0.896 -2 2 v 34.426 c 0 1.104 0.896 2 2 2 h 18.549 v 26.144 c 0 1.104 0.896 2 2 2 h 20.344 V 88 c 0 1.104 0.896 2 2 2 h 41.559 c 1.104 0 2 -0.896 2 -2 V 46.441 C 89.226 45.337 88.33 44.441 87.226 44.441 z M 4.774 34.426 V 4 H 35.2 v 14.999 H 23.323 c -1.104 0 -2 0.896 -2 2 v 13.427 H 4.774 z M 25.323 22.999 h 39.57 v 39.57 h -7.253 H 25.323 V 22.999 z M 85.226 86 H 47.667 V 66.569 h 9.974 h 9.253 c 1.104 0 2 -0.896 2 -2 V 48.441 h 16.332 V 86 z" style="stroke: none; stroke-width: 1; stroke-dasharray: none; stroke-linecap: butt; stroke-linejoin: miter; stroke-miterlimit: 10; fill: rgb(0,0,0); fill-rule: nonzero; opacity: 1;" transform=" matrix(1 0 0 1 0 0) " stroke-linecap="round"/>
	<path d="M 16.426 72.348 H 2.774 c -1.104 0 -2 0.896 -2 2 V 88 c 0 1.104 0.896 2 2 2 h 13.652 c 1.104 0 2 -0.896 2 -2 V 74.348 C 18.426 73.243 17.531 72.348 16.426 72.348 z M 14.426 86 H 4.774 v -9.652 h 9.652 V 86 z" style="stroke: none; stroke-width: 1; stroke-dasharray: none; stroke-linecap: butt; stroke-linejoin: miter; stroke-miterlimit: 10; fill: rgb(0,0,0); fill-rule: nonzero; opacity: 1;" transform=" matrix(1 0 0 1 0 0) " stroke-linecap="round"/>
	<path d="M 87.226 0 H 75.63 c -1.104 0 -2 0.896 -2 2 v 11.596 c 0 1.104 0.896 2 2 2 h 11.596 c 1.104 0 2 -0.896 2 -2 V 2 C 89.226 0.896 88.33 0 87.226 0 z M 85.226 11.596 H 77.63 V 4 h 7.596 V 11.596 z" style="stroke: none; stroke-width: 1; stroke-dasharray: none; stroke-linecap: butt; stroke-linejoin: miter; stroke-miterlimit: 10; fill: rgb(0,0,0); fill-rule: nonzero; opacity: 1;" transform=" matrix(1 0 0 1 0 0) " stroke-linecap="round"/>
</g>
</svg>