<svg xmlns="http://www.w3.org/2000/svg" xmlns:xlink="http://www.w3.org/1999/xlink" version="1.1" width="256" height="256" viewBox="0 0 256 256" xml:space="preserve">
<g style="stroke: none; stroke-width: 0; stroke-dasharray: none; stroke-linecap: butt; stroke-linejoin: miter; stroke-miterlimit: 10; fill: none; fill-rule: nonzero; opacity: 1;" transform="translate(1.4065934065934016 1.4065934065934016) scale(2.81 2.81)">
	<path d="M 88 0 H 2 C 0.896 0 0 0.896 0 2 v 71 c 0 1.104 0.896 2 2 2 h 71 c 1.104 0 2 -0.896 2 -2 V 17 c 0 -1.104 -0.896 -2 -2 -2 H 17 c -1.104 0 -2 0.896 -2 2 v 41 c 0 1.104 0.896 2 2 2 h 41 c 1.104 0 2 -0.896 2 -2 V 32 c 0 -1.104 -0.896 -2 -2 -2 H 32 c -1.104 0 -2 0.896 -2 2 v 13 c 0 1.104 0.896 2 2 2 s 2 -0.896 2 -2 V 34 h 22 v 22 H 19 V 19 h 52 v 52 H 4 V 4 h 82 v 82 H 2 c -1.104 0 -2 0.896 -2 2 s 0.896 2 2 2 h 86 c 1.104 0 2 -0.896 2 -2 V 2 C 90 0.896 89.104 0 88 0 z" style="stroke: none; stroke-width: 1; stroke-dasharray: none; stroke-linecap: butt; stroke-linejoin: miter; stroke-miterlimit: 10; fill: rgb(0,0,0); fill-rule: nonzero; opacity: 1;" transform=" matrix(1 0 0 1 0 0) " stroke-linecap="round"/>
</g>
</svg>