<svg xmlns="http://www.w3.org/2000/svg" xmlns:xlink="http://www.w3.org/1999/xlink" version="1.1" width="256" height="256" viewBox="0 0 256 256" xml:space="preserve">
<g style="stroke: none; stroke-width: 0; stroke-dasharray: none; stroke-linecap: butt; stroke-linejoin: miter; stroke-miterlimit: 10; fill: none; fill-rule: nonzero; opacity: 1;" transform="translate(1.4065934065934016 1.4065934065934016) scale(2.81 2.81)">
	<path d="M 82.036 7.963 C 71.892 -2.18 55.668 -2.609 45 6.656 C 34.331 -2.61 18.106 -2.179 7.963 7.963 C -2.179 18.107 -2.61 34.331 6.656 45 C -2.61 55.668 -2.179 71.893 7.963 82.036 c 5.3 5.301 12.263 7.951 19.225 7.951 c 6.361 0 12.718 -2.219 17.811 -6.644 c 5.093 4.424 11.45 6.644 17.811 6.644 c 6.963 0 13.926 -2.65 19.226 -7.951 C 92.179 71.893 92.61 55.669 83.343 45 C 92.611 34.331 92.18 18.106 82.036 7.963 z M 79.208 10.792 c 9.041 9.042 9.041 23.753 0 32.794 c -0.552 0.552 -1.126 1.067 -1.718 1.552 c -0.19 0.156 -0.392 0.288 -0.586 0.437 c -0.409 0.314 -0.818 0.63 -1.243 0.913 c -0.241 0.16 -0.492 0.297 -0.737 0.448 c -0.393 0.241 -0.783 0.485 -1.187 0.7 c -0.269 0.144 -0.546 0.265 -0.819 0.397 c -0.393 0.19 -0.784 0.383 -1.185 0.549 c -0.288 0.12 -0.582 0.219 -0.873 0.327 c -0.397 0.146 -0.793 0.294 -1.196 0.417 c -0.302 0.093 -0.608 0.168 -0.912 0.248 c -0.4 0.105 -0.801 0.21 -1.205 0.294 c -0.312 0.065 -0.626 0.114 -0.94 0.166 c -0.403 0.066 -0.806 0.129 -1.211 0.174 c -0.319 0.035 -0.639 0.058 -0.959 0.08 c -0.403 0.028 -0.806 0.05 -1.21 0.058 c -0.323 0.006 -0.646 0.001 -0.969 -0.006 c -0.401 -0.01 -0.802 -0.027 -1.203 -0.057 c -0.324 -0.024 -0.648 -0.057 -0.971 -0.095 c -0.397 -0.047 -0.793 -0.104 -1.188 -0.171 c -0.323 -0.055 -0.644 -0.115 -0.965 -0.183 c -0.391 -0.084 -0.779 -0.18 -1.166 -0.284 c -0.318 -0.086 -0.636 -0.174 -0.951 -0.273 c -0.383 -0.12 -0.761 -0.257 -1.138 -0.397 c -0.31 -0.116 -0.62 -0.232 -0.926 -0.361 c -0.373 -0.158 -0.74 -0.334 -1.106 -0.513 c -0.299 -0.146 -0.599 -0.289 -0.894 -0.449 c -0.362 -0.196 -0.715 -0.413 -1.068 -0.63 c -0.284 -0.175 -0.57 -0.344 -0.848 -0.532 c -0.351 -0.237 -0.69 -0.498 -1.03 -0.756 c -0.264 -0.201 -0.533 -0.394 -0.79 -0.607 c -0.06 -0.05 -0.115 -0.107 -0.174 -0.157 c 0.037 -0.043 0.068 -0.09 0.105 -0.134 c 0.471 -0.556 0.919 -1.126 1.338 -1.71 c 0.063 -0.088 0.123 -0.177 0.185 -0.266 c 0.424 -0.605 0.825 -1.221 1.193 -1.851 c 0.03 -0.051 0.057 -0.103 0.086 -0.154 c 0.371 -0.644 0.715 -1.3 1.029 -1.967 c 0.015 -0.032 0.032 -0.063 0.047 -0.095 c 0.31 -0.665 0.585 -1.342 0.839 -2.025 c 0.033 -0.09 0.069 -0.18 0.102 -0.27 c 0.236 -0.659 0.443 -1.326 0.627 -1.997 c 0.031 -0.114 0.062 -0.227 0.092 -0.342 c 0.173 -0.667 0.321 -1.339 0.443 -2.016 c 0.02 -0.113 0.038 -0.225 0.057 -0.338 c 0.115 -0.689 0.208 -1.38 0.271 -2.074 c 0.008 -0.084 0.011 -0.167 0.018 -0.251 c 0.058 -0.729 0.094 -1.459 0.095 -2.189 c 0 -0.004 0 -0.008 0 -0.013 c 0 -0.73 -0.036 -1.459 -0.094 -2.187 c -0.007 -0.085 -0.011 -0.169 -0.018 -0.254 c -0.062 -0.692 -0.155 -1.382 -0.27 -2.069 c -0.019 -0.116 -0.038 -0.231 -0.058 -0.346 c -0.121 -0.673 -0.269 -1.343 -0.442 -2.007 c -0.031 -0.118 -0.063 -0.235 -0.095 -0.352 c -0.183 -0.668 -0.389 -1.332 -0.624 -1.987 c -0.034 -0.095 -0.071 -0.188 -0.107 -0.283 c -0.252 -0.679 -0.526 -1.352 -0.834 -2.013 c -0.017 -0.037 -0.036 -0.072 -0.054 -0.109 c -0.311 -0.661 -0.652 -1.31 -1.02 -1.949 c -0.031 -0.055 -0.06 -0.11 -0.092 -0.165 c -0.367 -0.629 -0.768 -1.243 -1.19 -1.846 c -0.063 -0.09 -0.124 -0.18 -0.188 -0.269 c -0.419 -0.584 -0.866 -1.153 -1.337 -1.709 c -0.041 -0.048 -0.075 -0.101 -0.116 -0.149 C 56.932 1.774 70.625 2.21 79.208 10.792 z M 10.792 10.792 c 9.042 -9.042 23.753 -9.041 32.794 0 c 0.552 0.552 1.067 1.126 1.551 1.717 c 0.16 0.195 0.296 0.402 0.448 0.6 c 0.31 0.404 0.622 0.807 0.901 1.227 c 0.165 0.248 0.306 0.506 0.461 0.759 c 0.236 0.385 0.475 0.768 0.686 1.163 c 0.148 0.277 0.273 0.563 0.409 0.844 c 0.185 0.384 0.374 0.767 0.537 1.158 c 0.124 0.297 0.227 0.601 0.338 0.902 c 0.142 0.386 0.286 0.772 0.406 1.164 c 0.096 0.312 0.174 0.629 0.257 0.944 c 0.102 0.389 0.204 0.778 0.285 1.171 c 0.067 0.323 0.118 0.648 0.172 0.974 c 0.064 0.391 0.125 0.783 0.169 1.176 c 0.037 0.33 0.06 0.66 0.083 0.991 c 0.027 0.392 0.049 0.784 0.056 1.177 c 0.006 0.333 0.001 0.666 -0.007 1 c -0.01 0.391 -0.027 0.781 -0.056 1.171 c -0.025 0.334 -0.058 0.667 -0.097 1 c -0.046 0.387 -0.102 0.773 -0.167 1.158 c -0.056 0.332 -0.118 0.662 -0.189 0.991 c -0.082 0.383 -0.177 0.763 -0.278 1.142 c -0.087 0.325 -0.177 0.65 -0.279 0.972 c -0.118 0.376 -0.252 0.747 -0.39 1.118 c -0.118 0.317 -0.236 0.633 -0.369 0.946 c -0.156 0.367 -0.329 0.728 -0.504 1.088 c -0.148 0.305 -0.294 0.61 -0.456 0.909 c -0.194 0.357 -0.408 0.705 -0.622 1.054 c -0.177 0.289 -0.349 0.58 -0.541 0.863 c -0.234 0.346 -0.492 0.68 -0.746 1.016 c -0.204 0.268 -0.4 0.541 -0.617 0.803 c -0.049 0.059 -0.105 0.113 -0.155 0.172 c -0.046 -0.039 -0.095 -0.071 -0.141 -0.11 c -0.553 -0.468 -1.118 -0.912 -1.698 -1.329 c -0.092 -0.066 -0.186 -0.129 -0.279 -0.194 c -0.601 -0.421 -1.213 -0.819 -1.839 -1.186 c -0.055 -0.032 -0.112 -0.061 -0.168 -0.093 c -0.639 -0.368 -1.289 -0.709 -1.95 -1.02 c -0.035 -0.017 -0.069 -0.035 -0.105 -0.052 c -0.664 -0.309 -1.339 -0.584 -2.021 -0.837 c -0.091 -0.034 -0.181 -0.07 -0.272 -0.102 c -0.66 -0.237 -1.328 -0.444 -2.001 -0.628 c -0.111 -0.03 -0.222 -0.061 -0.334 -0.09 c -0.671 -0.174 -1.346 -0.323 -2.026 -0.446 c -0.107 -0.019 -0.214 -0.036 -0.322 -0.054 c -0.695 -0.117 -1.393 -0.21 -2.093 -0.273 c -0.074 -0.007 -0.149 -0.01 -0.223 -0.016 c -1.474 -0.119 -2.954 -0.119 -4.428 0 c -0.075 0.006 -0.149 0.009 -0.224 0.016 c -0.7 0.062 -1.397 0.156 -2.092 0.273 c -0.108 0.018 -0.216 0.035 -0.324 0.055 c -0.679 0.122 -1.354 0.271 -2.024 0.445 c -0.113 0.029 -0.225 0.06 -0.337 0.091 c -0.672 0.184 -1.339 0.391 -1.998 0.627 c -0.092 0.033 -0.183 0.069 -0.274 0.103 c -0.681 0.253 -1.356 0.527 -2.019 0.836 c -0.035 0.016 -0.07 0.035 -0.105 0.052 c -0.66 0.311 -1.31 0.652 -1.948 1.019 c -0.056 0.032 -0.114 0.062 -0.169 0.094 c -0.626 0.366 -1.237 0.764 -1.838 1.185 c -0.093 0.065 -0.188 0.129 -0.281 0.195 c -0.58 0.416 -1.145 0.86 -1.697 1.328 c -0.051 0.043 -0.105 0.078 -0.156 0.122 C 1.774 33.07 2.208 19.375 10.792 10.792 z M 27.188 86 c -6.194 0 -12.017 -2.412 -16.397 -6.792 c -9.041 -9.041 -9.041 -23.753 0 -32.794 c 0.561 -0.561 1.145 -1.087 1.747 -1.578 c 0.082 -0.067 0.171 -0.122 0.253 -0.188 c 0.532 -0.422 1.073 -0.83 1.632 -1.199 c 0.009 -0.006 0.018 -0.01 0.026 -0.016 c 5.766 -3.792 12.864 -4.744 19.299 -2.857 c 0.051 0.015 0.101 0.033 0.151 0.048 c 0.635 0.191 1.263 0.411 1.883 0.657 c 0.114 0.045 0.226 0.094 0.339 0.142 c 0.545 0.227 1.082 0.477 1.611 0.747 c 0.16 0.082 0.32 0.166 0.478 0.252 c 0.47 0.254 0.931 0.53 1.387 0.818 c 0.188 0.12 0.378 0.237 0.563 0.363 c 0.42 0.284 0.829 0.591 1.234 0.906 c 0.191 0.149 0.386 0.29 0.573 0.445 c 0.065 0.054 0.126 0.117 0.19 0.172 c -0.039 0.045 -0.071 0.095 -0.11 0.14 c -0.468 0.552 -0.911 1.118 -1.328 1.697 c -0.067 0.093 -0.13 0.188 -0.196 0.281 c -0.42 0.6 -0.818 1.211 -1.183 1.836 c -0.034 0.057 -0.064 0.116 -0.097 0.174 c -0.365 0.635 -0.705 1.282 -1.014 1.939 c -0.018 0.038 -0.039 0.076 -0.056 0.114 c -0.307 0.66 -0.581 1.332 -0.832 2.01 c -0.035 0.095 -0.073 0.19 -0.108 0.286 c -0.235 0.655 -0.441 1.318 -0.623 1.986 c -0.032 0.117 -0.064 0.234 -0.095 0.352 c -0.172 0.665 -0.32 1.334 -0.442 2.008 c -0.021 0.115 -0.039 0.23 -0.058 0.345 c -0.115 0.687 -0.208 1.377 -0.27 2.069 c -0.008 0.085 -0.011 0.169 -0.018 0.254 c -0.058 0.728 -0.094 1.457 -0.094 2.187 c 0 0.004 0 0.008 0 0.013 c 0 0.73 0.036 1.459 0.094 2.187 c 0.007 0.085 0.011 0.17 0.018 0.255 c 0.062 0.692 0.155 1.382 0.27 2.068 c 0.019 0.116 0.038 0.231 0.058 0.347 c 0.121 0.673 0.269 1.342 0.441 2.006 c 0.031 0.118 0.063 0.236 0.095 0.354 c 0.183 0.667 0.388 1.329 0.623 1.984 c 0.035 0.097 0.073 0.193 0.109 0.29 c 0.251 0.677 0.524 1.347 0.831 2.006 c 0.019 0.04 0.04 0.08 0.059 0.12 c 0.308 0.654 0.646 1.297 1.01 1.93 c 0.034 0.06 0.066 0.121 0.101 0.181 c 0.364 0.622 0.761 1.231 1.178 1.828 c 0.068 0.097 0.133 0.195 0.203 0.291 c 0.414 0.577 0.856 1.139 1.321 1.688 c 0.044 0.052 0.081 0.109 0.126 0.161 C 37.989 84.063 32.738 86 27.188 86 z M 79.208 79.208 c -9.04 9.04 -23.752 9.042 -32.794 0 c -0.551 -0.551 -1.066 -1.125 -1.55 -1.716 c -0.164 -0.2 -0.304 -0.412 -0.46 -0.616 c -0.305 -0.399 -0.613 -0.797 -0.889 -1.21 c -0.169 -0.253 -0.313 -0.517 -0.47 -0.774 c -0.232 -0.38 -0.469 -0.757 -0.677 -1.147 c -0.151 -0.282 -0.279 -0.573 -0.417 -0.86 c -0.182 -0.379 -0.368 -0.756 -0.529 -1.142 c -0.125 -0.302 -0.23 -0.609 -0.342 -0.915 c -0.14 -0.382 -0.282 -0.764 -0.402 -1.151 c -0.097 -0.316 -0.176 -0.635 -0.26 -0.954 c -0.101 -0.386 -0.202 -0.772 -0.283 -1.161 c -0.068 -0.326 -0.119 -0.654 -0.173 -0.982 c -0.063 -0.388 -0.124 -0.776 -0.168 -1.166 c -0.037 -0.333 -0.061 -0.666 -0.084 -1 c -0.027 -0.389 -0.048 -0.778 -0.056 -1.168 c -0.006 -0.336 -0.002 -0.672 0.007 -1.008 c 0.01 -0.388 0.026 -0.776 0.055 -1.163 c 0.025 -0.336 0.058 -0.671 0.098 -1.006 c 0.046 -0.386 0.101 -0.77 0.166 -1.154 c 0.056 -0.333 0.118 -0.664 0.189 -0.994 c 0.082 -0.381 0.176 -0.76 0.277 -1.138 c 0.088 -0.327 0.178 -0.653 0.28 -0.976 c 0.118 -0.375 0.252 -0.745 0.389 -1.115 c 0.118 -0.317 0.237 -0.634 0.369 -0.947 c 0.156 -0.367 0.329 -0.729 0.505 -1.089 c 0.148 -0.304 0.293 -0.608 0.455 -0.907 c 0.195 -0.359 0.41 -0.708 0.625 -1.058 c 0.176 -0.287 0.347 -0.576 0.537 -0.857 c 0.236 -0.349 0.496 -0.687 0.753 -1.026 c 0.201 -0.265 0.395 -0.534 0.609 -0.793 c 0.049 -0.06 0.107 -0.115 0.157 -0.174 c 0.043 0.037 0.09 0.068 0.134 0.104 c 0.556 0.471 1.126 0.918 1.71 1.338 c 0.089 0.064 0.179 0.124 0.268 0.187 c 0.604 0.423 1.219 0.823 1.848 1.191 c 0.054 0.031 0.109 0.06 0.163 0.091 c 0.639 0.368 1.289 0.709 1.95 1.021 c 0.037 0.017 0.073 0.037 0.109 0.054 c 0.66 0.308 1.333 0.581 2.011 0.833 c 0.096 0.035 0.19 0.073 0.286 0.108 c 0.654 0.234 1.315 0.439 1.981 0.622 c 0.12 0.033 0.24 0.066 0.36 0.097 c 0.661 0.172 1.328 0.318 1.998 0.44 c 0.119 0.022 0.239 0.04 0.359 0.06 c 0.682 0.114 1.367 0.206 2.055 0.268 c 0.091 0.008 0.183 0.012 0.275 0.02 c 0.718 0.057 1.437 0.092 2.156 0.093 c 0.017 0 0.034 0 0.05 0 c 0.719 -0.001 1.437 -0.036 2.154 -0.093 c 0.091 -0.007 0.182 -0.011 0.273 -0.02 c 0.688 -0.062 1.373 -0.154 2.055 -0.268 c 0.12 -0.02 0.239 -0.039 0.359 -0.06 c 0.67 -0.121 1.336 -0.268 1.998 -0.44 c 0.12 -0.031 0.24 -0.064 0.36 -0.097 c 0.667 -0.183 1.328 -0.388 1.982 -0.622 c 0.095 -0.034 0.189 -0.072 0.284 -0.107 c 0.679 -0.252 1.352 -0.526 2.013 -0.834 c 0.036 -0.017 0.071 -0.036 0.107 -0.053 c 0.662 -0.312 1.313 -0.654 1.953 -1.022 c 0.053 -0.031 0.107 -0.058 0.16 -0.089 c 0.63 -0.368 1.245 -0.769 1.85 -1.192 c 0.088 -0.062 0.177 -0.122 0.265 -0.185 c 0.584 -0.419 1.154 -0.867 1.711 -1.338 c 0.048 -0.041 0.1 -0.075 0.148 -0.116 C 88.226 56.93 87.792 70.624 79.208 79.208 z" style="stroke: none; stroke-width: 1; stroke-dasharray: none; stroke-linecap: butt; stroke-linejoin: miter; stroke-miterlimit: 10; fill: rgb(0,0,0); fill-rule: nonzero; opacity: 1;" transform=" matrix(1 0 0 1 0 0) " stroke-linecap="round"/>
</g>
</svg>